<svg xmlns="http://www.w3.org/2000/svg" viewBox="0 0 100 125" x="0px" y="0px"><g><path fill="#000000" d="M78.4291111,48 L93,48 L93,52 L63.8582223,52 C62.887763,58.7845883 57.0529438,64 50,64 C42.9470562,64 37.112237,58.7845883 36.1417777,52 L7,52 L7,48 L21.5708889,48 L5.02508409,48 C5.82499032,24.1177581 25.654814,5 50,5 C74.345186,5 94.1750097,24.1177581 94.9749156,47.9999919 L78.4291111,48 Z M5.0698178,52 L5.0698178,52 L10.2673188,52 C12.2742165,72.2132908 29.3284254,88 50.0698178,88 C70.8112102,88 87.8654191,72.2132908 89.8723168,52 L94.9301822,52 C93.619013,75.4136751 74.0044289,94 50,94 C25.9955711,94 6.38098697,75.4136751 5.0698178,52 Z M48.0000038,9.00000189 C39.2417163,9.00000189 29.0108845,12.9332703 22.5614594,19.6105452 C21.7940836,20.4050313 21.8160609,21.6711705 22.6105471,22.4385463 C23.4050332,23.2059221 24.6711724,23.1839448 25.4385482,22.3894586 C31.097175,16.5309199 40.2814525,13.0000019 48.0000038,13.0000019 C49.1045733,13.0000019 50.0000038,12.1045714 50.0000038,11.0000019 C50.0000038,9.89543239 49.1045733,9.00000189 48.0000038,9.00000189 Z M50,61 C56.0751322,61 61,56.0751322 61,50 C61,43.9248678 56.0751322,39 50,39 C43.9248678,39 39,43.9248678 39,50 C39,56.0751322 43.9248678,61 50,61 Z"/></g><text x="0" y="115" fill="#000000" font-size="5px" font-weight="bold" font-family="'Helvetica Neue', Helvetica, Arial-Unicode, Arial, Sans-serif">Created by Peter Emil van den Berg</text><text x="0" y="120" fill="#000000" font-size="5px" font-weight="bold" font-family="'Helvetica Neue', Helvetica, Arial-Unicode, Arial, Sans-serif">from the Noun Project</text></svg>