<svg width="34" height="34" viewBox="0 0 34 34" fill="none" xmlns="http://www.w3.org/2000/svg">
<path d="M17 5.66672C22.78 5.66672 27.5542 9.98755 28.2484 15.5834H22.4967C21.8592 13.1326 19.635 11.3334 17 11.3334C14.365 11.3334 12.1409 13.1326 11.5175 15.5834H5.75171C6.44588 9.98755 11.22 5.66672 17 5.66672Z" fill="#FF0000"/>
<path d="M16.9999 2.83304C9.17992 2.83304 2.83325 9.1797 2.83325 16.9997C2.83325 24.8197 9.17992 31.1664 16.9999 31.1664C24.8199 31.1664 31.1666 24.8197 31.1666 16.9997C31.1666 9.1797 24.8199 2.83304 16.9999 2.83304ZM16.9999 5.66637C22.7799 5.66637 27.5541 9.9872 28.2483 15.583H22.4966C21.8591 13.1322 19.6349 11.333 16.9999 11.333C14.3649 11.333 12.1408 13.1322 11.5174 15.583H5.75159C6.44575 9.9872 11.2199 5.66637 16.9999 5.66637ZM19.8333 16.9997C19.8333 18.558 18.5583 19.833 16.9999 19.833C15.4416 19.833 14.1666 18.558 14.1666 16.9997C14.1666 15.4414 15.4416 14.1664 16.9999 14.1664C18.5583 14.1664 19.8333 15.4414 19.8333 16.9997ZM16.9999 28.333C11.2199 28.333 6.44575 24.0122 5.75159 18.4164H11.5033C12.1266 20.8672 14.3508 22.6664 16.9858 22.6664C19.6208 22.6664 21.8449 20.8672 22.4683 18.4164H28.2199C27.5541 24.0122 22.7799 28.333 16.9999 28.333Z" fill="white"/>
</svg>
